<svg width="260" height="260" viewBox="0 0 260 260" fill="none" xmlns="http://www.w3.org/2000/svg">
<path fill-rule="evenodd" clip-rule="evenodd" d="M123.321 24.178L18.6642 167.596C15.8123 171.505 16.7181 176.992 20.6747 179.776L125.331 253.423C128.319 255.526 132.305 255.526 135.293 253.423L239.949 179.776C243.906 176.992 244.812 171.505 241.96 167.596L137.303 24.178C133.846 19.4407 126.778 19.4407 123.321 24.178ZM122.434 43.209L33.3349 171.047C31.9385 173.051 32.4756 175.812 34.5212 177.146L123.621 235.255C126.499 237.132 130.312 235.066 130.312 231.63V45.6833C130.312 41.4479 124.856 39.7343 122.434 43.209Z" fill="url(#paint0_linear)"/>
<defs>
<linearGradient id="paint0_linear" x1="130.312" y1="20.625" x2="130.312" y2="255" gradientUnits="userSpaceOnUse">
<stop/>
<stop offset="1"/>
</linearGradient>
</defs>
</svg>
