<svg width="227" height="250" viewBox="0 0 227 250" fill="none" xmlns="http://www.w3.org/2000/svg">
<path d="M1.6642 146.971L106.321 3.55301C109.778 -1.18433 116.846 -1.18434 120.303 3.553L224.96 146.971C227.812 150.88 226.906 156.367 222.949 159.151L118.293 232.798C115.305 234.901 111.319 234.901 108.331 232.798L3.67465 159.151C-0.281939 156.367 -1.18769 150.88 1.6642 146.971Z" fill="#2CF0A9"/>
<path d="M1.6642 162.596L106.321 19.178C109.778 14.4407 116.846 14.4407 120.303 19.178L224.96 162.596C227.812 166.505 226.906 171.992 222.949 174.776L118.293 248.423C115.305 250.526 111.319 250.526 108.331 248.423L3.67465 174.776C-0.281939 171.992 -1.18769 166.505 1.6642 162.596Z" fill="url(#paint0_linear)"/>
<path d="M16.3349 166.047L105.434 38.209C107.856 34.7343 113.312 36.4479 113.312 40.6833V226.63C113.312 230.066 109.499 232.132 106.621 230.255L17.5212 172.146C15.4756 170.812 14.9385 168.051 16.3349 166.047Z" fill="white"/>
<defs>
<linearGradient id="paint0_linear" x1="113.312" y1="15.625" x2="113.312" y2="250" gradientUnits="userSpaceOnUse">
<stop stop-color="#0150FC"/>
<stop offset="1" stop-color="#0150FC"/>
</linearGradient>
</defs>
</svg>
