<svg width="15" height="23" viewBox="0 0 15 23" fill="none" xmlns="http://www.w3.org/2000/svg">
<path d="M7.22727 0C7.22727 0 0 6.00122 0 13.2249C0 17.7058 3.23782 21.3377 7.22727 21.3377C11.219 21.3377 14.4545 17.7058 14.4545 13.2249C14.4545 6.00122 7.22727 0 7.22727 0ZM7.22727 18.7527C5.20141 18.7527 3.55804 16.9079 3.55804 14.6341C3.55804 10.9667 7.22727 7.91938 7.22727 7.91938C7.22727 7.91938 10.8965 10.9667 10.8965 14.6341C10.8965 16.9079 9.25536 18.7527 7.22727 18.7527Z" fill="#B88E28"/>
<path d="M7.22727 1.37659C7.22727 1.37659 0 7.3778 0 14.6015C0 19.0824 3.23782 22.7142 7.22727 22.7142C11.219 22.7142 14.4545 19.0824 14.4545 14.6015C14.4545 7.3778 7.22727 1.37659 7.22727 1.37659ZM7.22727 20.1293C5.20141 20.1293 3.55804 18.2845 3.55804 16.0107C3.55804 12.3433 7.22727 9.29597 7.22727 9.29597C7.22727 9.29597 10.8965 12.3433 10.8965 16.0107C10.8965 18.2845 9.25536 20.1293 7.22727 20.1293Z" fill="#EFAF0F"/>
</svg>
