<svg width="24" height="22" viewBox="0 0 24 22" fill="none" xmlns="http://www.w3.org/2000/svg">
<path d="M4.01786 9.61668L2.6514 6.54198C2.54307 6.29742 2.59624 6.01096 2.7872 5.81474L4.47702 4.07892C4.57132 3.98208 4.69084 3.91735 4.81885 3.88682C4.82934 3.88346 4.83942 3.87965 4.85014 3.87678L9.10329 2.73715C9.47016 2.63885 9.84456 2.84702 9.93969 3.20205C10.0348 3.55708 9.81467 3.92457 9.4478 4.02287L7.68322 4.49569L13.1004 5.79875L11.1693 7.70045L4.01786 9.61668ZM13.9753 18.2628C13.8801 17.9076 13.5058 17.6995 13.1389 17.7979L11.3743 18.2707L15.4141 14.4337L12.7908 13.7523L5.63937 15.6686L5.99333 19.0146C6.02165 19.2804 6.21106 19.502 6.47467 19.5765L8.80598 20.2348C8.93597 20.2715 9.07182 20.2678 9.19795 20.2302C9.20871 20.2279 9.21935 20.2261 9.23006 20.2232L13.4832 19.0836C13.8502 18.9853 14.0704 18.6178 13.9753 18.2628ZM5.26688 14.3904L4.12742 13.5195L3.02637 13.8145C2.6595 13.9128 2.28513 13.7047 2.18997 13.3496C2.09484 12.9946 2.31499 12.6271 2.68186 12.5288L3.78292 12.2338L4.33427 10.9098L11.694 8.93779C11.8121 8.90617 11.9198 8.84468 12.0062 8.75962L14.6375 6.16841L21.0193 7.70348C21.2591 7.76121 21.4462 7.94085 21.5085 8.17322C21.5708 8.40568 21.4986 8.6547 21.3197 8.82462L16.5604 13.3449L12.986 12.4165C12.8687 12.3861 12.7447 12.3867 12.6266 12.4183L5.26688 14.3904ZM15.8982 11.5385C16.2049 11.7497 16.6339 11.6764 16.8564 11.3747C16.9297 11.2753 17.5641 10.3731 17.2827 9.32297C17.0043 8.28385 16.0094 7.78811 15.8968 7.73503C15.5582 7.57516 15.1435 7.71347 14.9736 8.04544C14.8957 8.19758 14.8818 8.36338 14.9221 8.51389C14.9698 8.69175 15.0932 8.8482 15.2767 8.93472C15.43 9.01014 15.8506 9.29082 15.9546 9.67894C16.0766 10.1346 15.7454 10.6095 15.7454 10.6095C15.5229 10.9113 15.5914 11.3272 15.8982 11.5385Z" fill="white"/>
</svg>
