<svg width="202" height="33" viewBox="0 0 202 33" fill="none" xmlns="http://www.w3.org/2000/svg">
<path fill-rule="evenodd" clip-rule="evenodd" d="M33 2.39096L34.7932 2.39096L54.5 28.0557V2.99999H56.5V31.609H54.7069L35 5.94428V31H33V2.39096Z" fill="black"/>
<path fill-rule="evenodd" clip-rule="evenodd" d="M84.5564 32.1622L74.5564 3L76.4436 3L85.5 28.8107L94.5564 3H96.4436L105.476 28.7416L114.051 3.01486H116L106.449 32.1473L104.556 32.1622L95.5 6.35143L86.4436 32.1622H84.5564Z" fill="black"/>
<path d="M66 31.8311V3.33109H68V31.8311H66Z" fill="black"/>
<path fill-rule="evenodd" clip-rule="evenodd" d="M162 4.5H150.5V2.5H162C163.66 2.5 166.128 2.98978 168.209 4.48847C170.342 6.02386 172 8.57408 172 12.5C172 15.6553 170.927 17.897 169.349 19.4097C168.257 20.4566 166.963 21.1164 165.707 21.5094L173 31.5956H170.697L163.547 21.954C162.982 22.0131 162.449 22.0248 161.973 22H152.5V31H150.5V20H162.028L162.055 20.0015C162.559 20.0295 163.176 20.0052 163.842 19.8984C165.249 19.6724 166.789 19.093 167.965 17.9658C169.116 16.8633 170 15.1598 170 12.5C170 9.22592 168.658 7.27614 167.041 6.11153C165.372 4.91022 163.34 4.5 162 4.5Z" fill="black"/>
<path fill-rule="evenodd" clip-rule="evenodd" d="M191.5 4.5H180V2.5H191.5C193.16 2.5 195.628 2.98978 197.709 4.48847C199.842 6.02386 201.5 8.57408 201.5 12.5C201.5 16.2507 199.82 18.677 197.687 20.1269C195.608 21.5406 193.149 22 191.5 22H182V31H180V20H191.5C192.851 20 194.892 19.6094 196.563 18.4731C198.18 17.373 199.5 15.5493 199.5 12.5C199.5 9.22592 198.158 7.27614 196.541 6.11153C194.872 4.91022 192.84 4.5 191.5 4.5Z" fill="black"/>
<path fill-rule="evenodd" clip-rule="evenodd" d="M0.5 2.5H2.5V20.5C2.5 21.6568 2.73762 23.9421 3.97164 25.9053C5.15955 27.7952 7.33612 29.5 11.5 29.5C15.9686 29.5 18.4035 27.8732 19.7569 26.0326C21.1512 24.1363 21.5 21.8706 21.5 20.5V2.5H23.5V20.5C23.5 22.1294 23.0988 24.8637 21.3682 27.2174C19.5965 29.6268 16.5314 31.5 11.5 31.5C6.66388 31.5 3.84045 29.4548 2.27836 26.9697C0.76238 24.5579 0.5 21.8432 0.5 20.5V2.5Z" fill="black"/>
<path d="M117.213 18.8123L130.609 0.454785C131.052 -0.151595 131.956 -0.151595 132.399 0.454785L145.795 18.8123C146.16 19.3126 146.044 20.0149 145.538 20.3713L132.141 29.7982C131.759 30.0673 131.249 30.0673 130.866 29.7982L117.47 20.3713C116.964 20.0149 116.848 19.3126 117.213 18.8123Z" fill="#2CF0A9"/>
<path d="M117.213 20.8123L130.609 2.45479C131.052 1.84841 131.956 1.8484 132.399 2.45478L145.795 20.8123C146.16 21.3126 146.044 22.0149 145.538 22.3713L132.141 31.7982C131.759 32.0673 131.249 32.0673 130.866 31.7982L117.47 22.3713C116.964 22.0149 116.848 21.3126 117.213 20.8123Z" fill="url(#paint0_linear)"/>
<path d="M119.091 21.2541L130.496 4.89078C130.806 4.44602 131.504 4.66537 131.504 5.2075V29.0087C131.504 29.4485 131.016 29.7129 130.647 29.4726L119.243 22.0348C118.981 21.864 118.912 21.5105 119.091 21.2541Z" fill="white"/>
<defs>
<linearGradient id="paint0_linear" x1="131.504" y1="2" x2="131.504" y2="32" gradientUnits="userSpaceOnUse">
<stop stop-color="#0150FC"/>
<stop offset="1" stop-color="#0150FC"/>
</linearGradient>
</defs>
</svg>
