<svg width="17" height="62" viewBox="0 0 17 62" fill="none" xmlns="http://www.w3.org/2000/svg">
<rect x="7" width="3" height="51" fill="url(#paint0_linear)"/>
<path d="M11.5942 44.7318L14.9178 44.2076C15.1821 44.1663 15.445 44.2918 15.5851 44.527L16.8244 46.6085C16.8935 46.7247 16.9251 46.8569 16.9215 46.9884C16.922 46.9994 16.9231 47.0102 16.9231 47.0213L16.9231 51.4245C16.9231 51.8043 16.6251 52.112 16.2576 52.112C15.89 52.112 15.592 51.8043 15.592 51.4245L15.592 49.5976L12.9313 54.4929L11.5942 52.1355L11.5942 44.7318ZM0.665551 52.1121C1.03319 52.1121 1.33109 51.8044 1.33109 51.4245L1.33109 49.5977L3.99172 54.4929L5.32883 52.1354L5.32883 44.7317L2.00523 44.2076C1.74115 44.1661 1.47804 44.2917 1.33783 44.527L0.0986036 46.6085C0.0294775 46.7246 -0.00202428 46.8568 0.00161302 46.9884C0.00108087 46.9994 1.46619e-05 47.0101 1.46609e-05 47.0212L1.4276e-05 51.4244C1.42428e-05 51.8043 0.297997 52.1121 0.665551 52.1121ZM6.65991 44.7027L7.79602 43.8275L7.79602 42.6876C7.79602 42.3078 8.09391 42 8.46156 42C8.82911 42 9.12709 42.3078 9.12709 42.6876L9.12709 43.8275L10.2632 44.7027L10.2632 52.3221C10.2632 52.4443 10.2947 52.5643 10.3545 52.6697L12.1764 55.882L9.0419 61.6491C8.92406 61.8658 8.70212 62 8.46155 62C8.2209 62 7.99905 61.8658 7.88121 61.6491L4.74671 55.882L6.56859 52.6697C6.6284 52.5643 6.65991 52.4443 6.65991 52.3221L6.65991 44.7027ZM6.66301 55.7098C6.37958 55.9515 6.33938 56.3849 6.57321 56.6779C6.65023 56.7744 7.35756 57.6206 8.4447 57.6206C9.52047 57.6206 10.2568 56.788 10.3372 56.693C10.5793 56.4072 10.553 55.9708 10.2763 55.7208C10.1495 55.6063 9.993 55.5499 9.83717 55.5499C9.65304 55.5499 9.46998 55.6286 9.33891 55.7835C9.22639 55.912 8.84641 56.2456 8.44461 56.2456C7.97287 56.2456 7.59991 55.8027 7.59991 55.8027C7.36599 55.5097 6.94653 55.4682 6.66301 55.7098Z" fill="#333D54"/>
<defs>
<linearGradient id="paint0_linear" x1="8.5" y1="0" x2="8.5" y2="51" gradientUnits="userSpaceOnUse">
<stop stop-color="white" stop-opacity="0"/>
<stop offset="1" stop-color="#0145D8"/>
</linearGradient>
</defs>
</svg>
